<svg width="26" height="26" viewBox="0 0 26 26" fill="none" xmlns="http://www.w3.org/2000/svg">
<path fill-rule="evenodd" clip-rule="evenodd" d="M14.771 22.4545V13.8298H17.7213L18.164 10.4676H14.771V8.32134C14.771 7.34822 15.0454 6.68504 16.4697 6.68504L18.2834 6.68431V3.67705C17.9698 3.63707 16.8931 3.54541 15.64 3.54541C13.0234 3.54541 11.232 5.112 11.232 7.98836V10.4676H8.27271V13.8298H11.232V22.4545H14.771Z" fill="white"/>
<mask id="mask0_237_20" style="mask-type:luminance" maskUnits="userSpaceOnUse" x="8" y="3" width="11" height="20">
<path fill-rule="evenodd" clip-rule="evenodd" d="M14.771 22.4545V13.8298H17.7213L18.164 10.4676H14.771V8.32134C14.771 7.34822 15.0454 6.68504 16.4697 6.68504L18.2834 6.68431V3.67705C17.9698 3.63707 16.8931 3.54541 15.64 3.54541C13.0234 3.54541 11.232 5.112 11.232 7.98836V10.4676H8.27271V13.8298H11.232V22.4545H14.771Z" fill="white"/>
</mask>
<g mask="url(#mask0_237_20)">
</g>
</svg>
