<svg width="54" height="21" viewBox="0 0 54 21" fill="none" xmlns="http://www.w3.org/2000/svg">
<path d="M21.9483 0.132931H23.2667C26.8604 0.132931 29.0089 1.35363 29.712 3.79504C29.9366 4.58606 30.0489 5.49914 30.0489 6.5343V20.0841H21.9483V0.132931ZM11.0792 0.132931H19.2237V20.0841H11.0792V0.132931ZM0.180725 0.132931H8.32526V20.0841H0.180725V0.132931Z" fill="black"/>
<path d="M44.0967 0.147579H53.1348V10.1818L44.0967 0.147579ZM34.5313 6.03625H34.4434C34.4434 4.02453 34.9903 2.54016 36.084 1.58313C37.1778 0.626095 38.8624 0.147579 41.1378 0.147579L53.1348 14.7081C53.1348 16.6417 52.6124 18.0236 51.5674 18.8536C50.5518 19.6642 48.8917 20.0695 46.587 20.0695L34.5313 6.03625ZM34.4874 9.99133L43.1885 20.0841H34.4874V9.99133Z" fill="black"/>
</svg>
