<svg width="34" height="27" viewBox="0 0 34 27" fill="none" xmlns="http://www.w3.org/2000/svg">
<path d="M7.09 7.48L7.3 6.43H10L9.79 7.48H7.09ZM13.4763 10L13.7463 8.64H10.6363L10.8363 7.65L14.4963 3.02H15.8963L14.9463 7.76H15.8663L15.6862 8.64H14.7663L14.4963 10H13.4763ZM11.7563 7.76H13.9263L14.6363 4.21H14.5663L11.7563 7.76ZM22.0023 3.98H19.0123L18.3823 6.51H18.4623C18.6423 6.19 18.8423 5.95333 19.0623 5.8C19.289 5.64 19.5957 5.56 19.9823 5.56C20.2357 5.56 20.469 5.60333 20.6823 5.69C20.8957 5.77 21.079 5.89 21.2323 6.05C21.3857 6.20333 21.5057 6.39667 21.5923 6.63C21.679 6.85667 21.7223 7.11667 21.7223 7.41C21.7223 7.77 21.659 8.11667 21.5323 8.45C21.4123 8.77667 21.2357 9.06333 21.0023 9.31C20.7757 9.55667 20.4923 9.75333 20.1523 9.9C19.8123 10.0467 19.429 10.12 19.0023 10.12C18.6823 10.12 18.4023 10.0833 18.1623 10.01C17.9223 9.94333 17.7123 9.85 17.5323 9.73C17.359 9.61 17.2123 9.47333 17.0923 9.32C16.9723 9.16667 16.879 9.00667 16.8123 8.84L17.6923 8.26C17.7923 8.54 17.949 8.76333 18.1623 8.93C18.3757 9.09667 18.6823 9.18 19.0823 9.18C19.4823 9.18 19.8023 9.07 20.0423 8.85C20.2823 8.63 20.4423 8.31333 20.5223 7.9C20.5357 7.82667 20.549 7.75333 20.5623 7.68C20.5757 7.6 20.5823 7.52333 20.5823 7.45C20.5823 7.15 20.4957 6.91333 20.3223 6.74C20.149 6.56667 19.8857 6.48 19.5323 6.48C19.2523 6.48 19.009 6.54 18.8023 6.66C18.6023 6.77333 18.4257 6.91333 18.2723 7.08L17.4023 6.95L18.3823 3.02H22.1923L22.0023 3.98ZM25.0284 6.48C24.8084 6.48 24.6051 6.44 24.4184 6.36C24.2318 6.28 24.0684 6.17 23.9284 6.03C23.7884 5.89 23.6784 5.72333 23.5984 5.53C23.5251 5.33667 23.4884 5.12333 23.4884 4.89C23.4884 4.60333 23.5351 4.34 23.6284 4.1C23.7284 3.85333 23.8651 3.64333 24.0384 3.47C24.2118 3.29 24.4151 3.15 24.6484 3.05C24.8884 2.95 25.1451 2.9 25.4184 2.9C25.6384 2.9 25.8418 2.94 26.0284 3.02C26.2151 3.1 26.3784 3.21 26.5184 3.35C26.6584 3.49 26.7651 3.66 26.8384 3.86C26.9184 4.05333 26.9584 4.26333 26.9584 4.49C26.9584 4.77667 26.9084 5.04333 26.8084 5.29C26.7151 5.53 26.5818 5.74 26.4084 5.92C26.2351 6.09333 26.0284 6.23 25.7884 6.33C25.5551 6.43 25.3018 6.48 25.0284 6.48ZM25.1184 5.72C25.2718 5.72 25.4118 5.69 25.5384 5.63C25.6651 5.56333 25.7718 5.47667 25.8584 5.37C25.9518 5.25667 26.0218 5.12667 26.0684 4.98C26.1151 4.83333 26.1384 4.67333 26.1384 4.5C26.1384 4.26667 26.0651 4.07 25.9184 3.91C25.7784 3.74333 25.5818 3.66 25.3284 3.66C25.1751 3.66 25.0351 3.69333 24.9084 3.76C24.7818 3.82 24.6718 3.90667 24.5784 4.02C24.4918 4.12667 24.4251 4.25667 24.3784 4.41C24.3318 4.55667 24.3084 4.71333 24.3084 4.88C24.3084 5.11333 24.3818 5.31333 24.5284 5.48C24.6751 5.64 24.8718 5.72 25.1184 5.72Z" fill="white"/>
<path d="M0.5 26C3.57849 20.0594 9.78319 16 16.936 16C24.0888 16 30.2935 20.0594 33.372 26" stroke="url(#paint0_linear_1_486)"/>
<defs>
<linearGradient id="paint0_linear_1_486" x1="0.5" y1="21" x2="33.372" y2="21" gradientUnits="userSpaceOnUse">
<stop stop-color="white" stop-opacity="0"/>
<stop offset="0.5" stop-color="white"/>
<stop offset="1" stop-color="white" stop-opacity="0"/>
</linearGradient>
</defs>
</svg>
