<svg width="53" height="53" viewBox="0 0 53 53" fill="none" xmlns="http://www.w3.org/2000/svg">
<path d="M26.5 24.1083C30.4702 24.1083 33.6751 20.9034 33.6751 16.9332C33.6751 12.963 30.4702 9.75812 26.5 9.75812C22.5298 9.75812 19.3249 12.963 19.3249 16.9332C19.3249 20.9034 22.5298 24.1083 26.5 24.1083ZM26.5 14.5415C27.8154 14.5415 28.8917 15.6178 28.8917 16.9332C28.8917 18.2486 27.8154 19.3249 26.5 19.3249C25.1846 19.3249 24.1083 18.2486 24.1083 16.9332C24.1083 15.6178 25.1846 14.5415 26.5 14.5415Z" fill="#A3865C"/>
<path d="M26.5 26.5C22.0993 26.5 17.9856 27.6958 14.4698 29.7766C13.0108 30.6137 12.1498 32.2162 12.1498 33.8903V38.4585H40.8502V33.8903C40.8502 32.2162 39.9892 30.6376 38.5302 29.7766C35.0144 27.6958 30.9007 26.5 26.5 26.5ZM17.2681 33.6751C20.0903 32.1205 23.2712 31.2834 26.5 31.2834C29.7288 31.2834 32.9097 32.1205 35.708 33.6751H17.2681Z" fill="#A3865C"/>
<path d="M48.5754 17.292L53 15.4504C50.0821 8.49052 44.5095 2.89395 37.5496 0L35.708 4.42464C41.4959 6.86417 46.1358 11.5041 48.5754 17.292Z" fill="#A3865C"/>
<path d="M17.292 4.42464L15.4504 0C8.49052 2.91787 2.91787 8.49052 0 15.4504L4.42464 17.292C6.86417 11.5041 11.5041 6.86417 17.292 4.42464Z" fill="#A3865C"/>
<path d="M4.42464 35.708L0 37.5496C2.91787 44.5095 8.49052 50.106 15.4504 53L17.292 48.5754C11.5041 46.1358 6.86417 41.4959 4.42464 35.708Z" fill="#A3865C"/>
<path d="M35.708 48.5754L37.5496 53C44.5095 50.0821 50.106 44.5095 53 37.5496L48.5754 35.708C46.1358 41.4959 41.4959 46.1358 35.708 48.5754Z" fill="#A3865C"/>
</svg>
