<svg width="59" height="49" viewBox="0 0 59 49" fill="none" xmlns="http://www.w3.org/2000/svg">
<path d="M54.8837 5.44444C54.8837 2.45 52.414 0 49.3953 0H5.48837V5.44444H49.3953V12.495C51.3986 13.2844 53.2372 14.3733 54.8837 15.68V5.44444Z" fill="#A3865C"/>
<path d="M16.4651 13.6111H2.74419C1.37209 13.6111 0 14.9722 0 16.3333V40.8333C0 42.1944 1.37209 43.5556 2.74419 43.5556H16.4651C17.8372 43.5556 19.2093 42.1944 19.2093 40.8333V16.3333C19.2093 14.9722 17.8372 13.6111 16.4651 13.6111ZM13.7209 38.1111H5.48837V19.0556H13.7209V38.1111Z" fill="#A3865C"/>
<path d="M43.2209 35.3072C44.0442 34.6811 44.593 33.7556 44.593 32.6667C44.593 30.7883 43.0563 29.2639 41.1628 29.2639C39.2693 29.2639 37.7326 30.7883 37.7326 32.6667C37.7326 33.7556 38.2814 34.7083 39.1046 35.3072V49H43.2209V35.3072Z" fill="#A3865C"/>
<path d="M41.1628 25.8611C44.9498 25.8611 48.0233 28.91 48.0233 32.6667C48.0233 34.545 47.2549 36.2328 46.02 37.4578L48.9288 40.3433C50.9047 38.3833 52.1395 35.6611 52.1395 32.6667C52.1395 26.6506 47.2274 21.7778 41.1628 21.7778C35.0981 21.7778 30.186 26.6506 30.186 32.6667C30.186 35.6611 31.4209 38.3833 33.3967 40.3706L36.3056 37.485C35.0707 36.26 34.3023 34.545 34.3023 32.6667C34.3023 28.91 37.3758 25.8611 41.1628 25.8611Z" fill="#A3865C"/>
<path d="M41.1628 14.9722C31.3112 14.9722 23.3256 22.8939 23.3256 32.6667C23.3256 37.5394 25.3288 41.9767 28.5395 45.1889L31.4484 42.3033C28.9786 39.8261 27.4419 36.4233 27.4419 32.6667C27.4419 25.1533 33.5888 19.0556 41.1628 19.0556C48.7367 19.0556 54.8837 25.1533 54.8837 32.6667C54.8837 36.3961 53.347 39.7989 50.8772 42.2489L53.8135 45.1344C57.0242 41.9222 59 37.5122 59 32.6667C59 22.8939 51.0144 14.9722 41.1628 14.9722Z" fill="#A3865C"/>
</svg>
