<svg width="36" height="45" viewBox="0 0 36 45" fill="none" xmlns="http://www.w3.org/2000/svg">
<path d="M18 0L0 6.75V20.4525C0 31.815 7.6725 42.4125 18 45C28.3275 42.4125 36 31.815 36 20.4525V6.75L18 0ZM31.5 20.4525C31.5 29.4525 25.7625 37.7775 18 40.32C10.2375 37.7775 4.5 29.475 4.5 20.4525V9.8775L18 4.815L31.5 9.8775V20.4525Z" fill="#A3865C"/>
<path d="M11.2725 27.7425C15.21 32.625 22.7925 32.7825 26.9325 27.9C27.45 27.2925 27.1125 26.37 26.3475 26.235C23.445 25.7625 20.7675 24.03 19.1925 21.285C17.595 18.54 17.4375 15.3675 18.4725 12.6C18.7425 11.8575 18.1125 11.115 17.325 11.25C9.81 12.645 6.3225 21.6225 11.2725 27.7425Z" fill="#A3865C"/>
</svg>
