<svg width="65" height="59" viewBox="0 0 65 59" fill="none" xmlns="http://www.w3.org/2000/svg">
<path d="M29.5455 32.45H11.8182V47.2H5.90909V26.6385L20.6818 16.107L35.4545 26.6385V29.8245C37.1386 28.084 39.1477 26.668 41.3636 25.6355V23.6L20.6818 8.85L0 23.6V53.1H17.7273V38.35H23.6364V53.1H31.5545C30.2841 50.4155 29.5455 47.436 29.5455 44.25V32.45Z" fill="white"/>
<path d="M53.1818 11.8H47.2727V17.7H53.1818V11.8Z" fill="white"/>
<path d="M65 29.8245V0H26.5909V5.8115L32.5 10.03V5.9H59.0909V25.606C61.3068 26.668 63.3159 28.084 65 29.8245Z" fill="white"/>
<path d="M65 44.25C65 36.108 58.3818 29.5 50.2273 29.5C42.0727 29.5 35.4545 36.108 35.4545 44.25C35.4545 52.392 42.0727 59 50.2273 59C58.3818 59 65 52.392 65 44.25ZM48.75 53.1V45.725H41.3636V42.775H48.75V35.4H51.7045V42.775H59.0909V45.725H51.7045V53.1H48.75Z" fill="white"/>
</svg>
