<svg width="26" height="26" viewBox="0 0 26 26" fill="none" xmlns="http://www.w3.org/2000/svg">
<path fill-rule="evenodd" clip-rule="evenodd" d="M23.6363 6.65791C22.8968 6.98557 22.1034 7.20779 21.2698 7.30699C22.121 6.79727 22.7725 5.98877 23.0814 5.02835C22.2829 5.50039 21.4016 5.84315 20.4625 6.02895C19.7105 5.22673 18.6408 4.72705 17.4544 4.72705C15.1783 4.72705 13.3328 6.57256 13.3328 8.84743C13.3328 9.17006 13.3692 9.48518 13.4395 9.78651C10.0147 9.61449 6.97777 7.97364 4.94521 5.4803C4.58991 6.08795 4.38778 6.79599 4.38778 7.55179C4.38778 8.98176 5.11595 10.2435 6.22075 10.9817C5.54531 10.9591 4.91005 10.7733 4.35391 10.4644V10.5159C4.35391 12.512 5.77507 14.178 7.65948 14.5572C7.31423 14.6501 6.95016 14.7016 6.57352 14.7016C6.30738 14.7016 6.05001 14.6752 5.79766 14.625C6.32242 16.2633 7.84404 17.4547 9.64687 17.4874C8.237 18.5922 6.45928 19.2488 4.52842 19.2488C4.19574 19.2488 3.86805 19.2287 3.54541 19.1923C5.36958 20.3637 7.53523 21.0466 9.86282 21.0466C17.4444 21.0466 21.5887 14.7669 21.5887 9.32075L21.5749 8.78719C22.3846 8.20964 23.0851 7.484 23.6363 6.65791Z" fill="white"/>
<mask id="mask0_1_543" style="mask-type:luminance" maskUnits="userSpaceOnUse" x="3" y="4" width="21" height="18">
<path fill-rule="evenodd" clip-rule="evenodd" d="M23.6363 6.65791C22.8968 6.98557 22.1034 7.20779 21.2698 7.30699C22.121 6.79727 22.7725 5.98877 23.0814 5.02835C22.2829 5.50039 21.4016 5.84315 20.4625 6.02895C19.7105 5.22673 18.6408 4.72705 17.4544 4.72705C15.1783 4.72705 13.3328 6.57256 13.3328 8.84743C13.3328 9.17006 13.3692 9.48518 13.4395 9.78651C10.0147 9.61449 6.97777 7.97364 4.94521 5.4803C4.58991 6.08795 4.38778 6.79599 4.38778 7.55179C4.38778 8.98176 5.11595 10.2435 6.22075 10.9817C5.54531 10.9591 4.91005 10.7733 4.35391 10.4644V10.5159C4.35391 12.512 5.77507 14.178 7.65948 14.5572C7.31423 14.6501 6.95016 14.7016 6.57352 14.7016C6.30738 14.7016 6.05001 14.6752 5.79766 14.625C6.32242 16.2633 7.84404 17.4547 9.64687 17.4874C8.237 18.5922 6.45928 19.2488 4.52842 19.2488C4.19574 19.2488 3.86805 19.2287 3.54541 19.1923C5.36958 20.3637 7.53523 21.0466 9.86282 21.0466C17.4444 21.0466 21.5887 14.7669 21.5887 9.32075L21.5749 8.78719C22.3846 8.20964 23.0851 7.484 23.6363 6.65791Z" fill="white"/>
</mask>
<g mask="url(#mask0_1_543)">
</g>
</svg>
